<?xml version="1.0" encoding="UTF-8"?>
<svg enable-background="new 0 0 567.41 567.41" version="1.1" viewBox="0 0 567.41 567.41" xml:space="preserve" xmlns="http://www.w3.org/2000/svg">
	<path d="m312.86 465.38h-54.888c-67.961 0-123.24-50.353-123.24-112.26 0-7.434 6.034-13.468 13.468-13.468h274.44c7.434 0 13.468 6.034 13.468 13.468 1e-3 61.91-55.291 112.26-123.24 112.26zm-149.99-98.785c7.309 40.665 47.175 71.849 95.104 71.849h54.888c47.929 0 87.786-31.184 95.104-71.849h-245.1z"/>
	<path d="m402.66 289.85c-0.287 9e-3 -0.637-9e-3 -0.961-0.027-0.296 0.018-0.593 0.027-0.88 0.027-3.924 0-14.33 0-43.916-36.732-13.405-16.656-29.388-39.776-29.388-55.364 0-28.409 23.112-51.521 51.512-51.521 9.428 0 16.862 5.45 22.672 10.649 5.8-5.199 13.235-10.649 22.663-10.649 28.4 0 51.512 23.112 51.512 51.521 0 15.587-15.982 38.708-29.397 55.364-29.343 36.436-39.822 36.732-43.817 36.732zm-24.18-116.73c-13.01 0.054-24.027 11.089-24.027 24.638 0.413 11.206 33.114 53.227 47.247 64.001 14.124-10.784 46.825-52.805 47.238-64.028 0-13.522-11.017-24.557-24.575-24.557-1.23 0.467-5.441 4.436-7.686 6.564-2.442 2.299-4.777 4.445-6.941 6.061-4.759 3.547-11.295 3.565-16.072 0-2.173-1.616-4.516-3.771-6.959-6.07-2.254-2.128-6.447-6.088-8.225-6.609z"/>
	<path d="m186.36 289.85c-0.314 9e-3 -0.637-9e-3 -0.961-0.027-0.296 0.018-0.593 0.027-0.88 0.027-3.915 0-14.33 0-43.916-36.732-13.405-16.656-29.388-39.776-29.388-55.364 0-28.409 23.112-51.521 51.512-51.521 9.428 0 16.862 5.45 22.672 10.649 5.8-5.199 13.235-10.649 22.663-10.649 28.4 0 51.512 23.112 51.512 51.521 0 15.587-15.982 38.708-29.397 55.364-29.343 36.436-39.821 36.732-43.817 36.732zm-24.18-116.73c-13.01 0.054-24.027 11.089-24.027 24.638 0.413 11.206 33.114 53.227 47.247 64.001 14.124-10.784 46.834-52.805 47.238-64.028 0-13.522-11.017-24.557-24.575-24.557-1.23 0.467-5.432 4.436-7.686 6.564-2.442 2.299-4.777 4.445-6.941 6.061-4.759 3.547-11.295 3.565-16.072 0-2.173-1.616-4.516-3.771-6.959-6.07-2.254-2.128-6.447-6.088-8.225-6.609z"/>
	<path d="m283.7 567.41c-156.4 0-283.64-127.27-283.64-283.7s127.24-283.7 283.64-283.7 283.64 127.27 283.64 283.7-127.24 283.7-283.64 283.7zm0-540.47c-141.55 0-256.7 115.19-256.7 256.77s115.15 256.76 256.7 256.76 256.7-115.18 256.7-256.76-115.15-256.77-256.7-256.77z"/>
</svg>
