<?xml version="1.0" encoding="UTF-8"?>
<svg enable-background="new 0 0 559.464 559.464" version="1.1" viewBox="0 0 559.464 559.464" xml:space="preserve" xmlns="http://www.w3.org/2000/svg">
	<path d="m308.46 464.94h-54.089c-67.054 0-121.63-50.362-121.63-112.26 0-7.443 6.034-13.477 13.468-13.477h270.41c7.434 0 13.468 6.034 13.468 13.477 0.011 61.901-54.563 112.26-121.63 112.26zm-147.6-98.794c7.192 40.665 46.385 71.849 93.515 71.849h54.08c47.13 0 86.332-31.184 93.524-71.849h-241.12z"/>
	<path d="m404.11 206.42c0 17.796-14.42 32.207-32.207 32.207-17.778 0-32.198-14.411-32.198-32.207 0-17.787 14.42-32.207 32.198-32.207 17.787 0 32.207 14.42 32.207 32.207z"/>
	<path d="m218.94 206.42c0 17.796-14.411 32.207-32.198 32.207s-32.198-14.411-32.198-32.207c0-17.787 14.411-32.207 32.198-32.207s32.198 14.42 32.198 32.207z"/>
	<path d="m279.73 559.46c-154.2 0-279.66-125.49-279.66-279.73-1e-3 -154.25 125.46-279.74 279.66-279.74s279.66 125.49 279.66 279.74c9e-3 154.24-125.45 279.73-279.66 279.73zm0-532.52c-139.36 0-252.73 113.39-252.73 252.79 0 139.39 113.37 252.78 252.73 252.78 139.35 0 252.73-113.39 252.73-252.78 9e-3 -139.4-113.38-252.79-252.73-252.79z"/>
</svg>
