<?xml version="1.0" encoding="UTF-8"?>
<svg enable-background="new 0 0 567.419 567.419" version="1.1" viewBox="0 0 567.419 567.419" xml:space="preserve" xmlns="http://www.w3.org/2000/svg">
	<path d="m409.93 209.3c0 18.056-14.627 32.692-32.683 32.692-18.047 0-32.683-14.636-32.683-32.692s14.636-32.683 32.683-32.683c18.056 0 32.683 14.627 32.683 32.683z"/>
	<path d="m222.01 209.3c0 18.056-14.636 32.692-32.683 32.692s-32.683-14.636-32.683-32.692 14.636-32.683 32.683-32.683 32.683 14.627 32.683 32.683z"/>
	<path d="m172.54 453.62c-7.434 0-13.468-6.025-13.468-13.468 0-58.138 46.762-105.44 104.24-105.44h45.397c57.483 0 104.24 47.04 104.24 104.86 0 7.443-6.025 13.477-13.468 13.477-7.435 0-13.459-6.034-13.459-13.477 0-42.955-34.685-77.91-77.317-77.91h-45.397c-42.632 0-77.308 35.206-77.308 78.493-2e-3 7.444-6.036 13.469-13.47 13.469z"/>
	<path d="m283.71 567.42c-156.4 0-283.64-127.28-283.64-283.71 0-156.43 127.24-283.7 283.64-283.7 156.39 0 283.63 127.28 283.63 283.7 0 156.44-127.24 283.71-283.63 283.71zm0-540.47c-141.55 0-256.7 115.18-256.7 256.76 0 141.59 115.15 256.77 256.7 256.77 141.54 0 256.7-115.18 256.7-256.77 0-141.58-115.15-256.76-256.7-256.76z"/>
</svg>
