<?xml version="1.0" encoding="UTF-8"?>
<svg enable-background="new 0 0 559.464 559.464" version="1.1" viewBox="0 0 559.464 559.464" xml:space="preserve" xmlns="http://www.w3.org/2000/svg">
	<path d="m411.1 393.09h-251.41c-7.434 0-13.468-6.034-13.468-13.468 0-7.443 6.034-13.477 13.468-13.477h251.41c7.434 0 13.468 6.034 13.468 13.477 1e-3 7.435-6.033 13.468-13.468 13.468z"/>
	<path d="m404.11 206.42c0 17.796-14.42 32.216-32.207 32.216s-32.198-14.42-32.198-32.216c0-17.787 14.411-32.207 32.198-32.207s32.207 14.42 32.207 32.207z"/>
	<path d="m218.94 206.42c0 17.796-14.42 32.216-32.198 32.216-17.787 0-32.198-14.42-32.198-32.216 0-17.787 14.411-32.207 32.198-32.207s32.198 14.42 32.198 32.207z"/>
	<path d="m279.73 559.46c-154.21 0-279.66-125.49-279.66-279.73 8e-3 -154.25 125.46-279.74 279.66-279.74s279.66 125.49 279.66 279.74c0 154.24-125.46 279.73-279.66 279.73zm0-532.52c-139.35 0-252.73 113.4-252.73 252.79s113.38 252.79 252.73 252.79c139.36 0 252.73-113.4 252.73-252.79s-113.37-252.79-252.73-252.79z"/>
</svg>
